<svg width="25" height="25" viewBox="0 0 25 25" fill="none" xmlns="http://www.w3.org/2000/svg">
<g clip-path="url(#clip0_1005_8)">
<path d="M12.5 3.5C10.1131 3.5 7.82387 4.44821 6.13604 6.13604C4.44821 7.82387 3.5 10.1131 3.5 12.5H0.5L4.5 16.5L8.5 12.5H5.5C5.5 10.6435 6.2375 8.86301 7.55025 7.55025C8.86301 6.2375 10.6435 5.5 12.5 5.5C14.3565 5.5 16.137 6.2375 17.4497 7.55025C18.7625 8.86301 19.5 10.6435 19.5 12.5C19.5 14.3565 18.7625 16.137 17.4497 17.4497C16.137 18.7625 14.3565 19.5 12.5 19.5C11 19.5 9.59 19 8.44 18.2L7 19.64C8.54 20.8 10.44 21.5 12.5 21.5C14.8869 21.5 17.1761 20.5518 18.864 18.864C20.5518 17.1761 21.5 14.8869 21.5 12.5C21.5 10.1131 20.5518 7.82387 18.864 6.13604C17.1761 4.44821 14.8869 3.5 12.5 3.5ZM14.5 12.5C14.5 11.9696 14.2893 11.4609 13.9142 11.0858C13.5391 10.7107 13.0304 10.5 12.5 10.5C11.9696 10.5 11.4609 10.7107 11.0858 11.0858C10.7107 11.4609 10.5 11.9696 10.5 12.5C10.5 13.0304 10.7107 13.5391 11.0858 13.9142C11.4609 14.2893 11.9696 14.5 12.5 14.5C13.0304 14.5 13.5391 14.2893 13.9142 13.9142C14.2893 13.5391 14.5 13.0304 14.5 12.5Z" fill="black"/>
</g>
<defs>
<clipPath id="clip0_1005_8">
<rect width="24" height="24" fill="white" transform="translate(0.5 0.5)"/>
</clipPath>
</defs>
</svg>
